# xmcd CD database file
#
# Track frame offsets:
#	150
#	27702
#	50737
#	76512
#	101845
#	127282
#	143655
#	169090
#	193887
#	220480
#	244850
#
# Disc length: 3584 seconds
#
# Revision: 0
# Processed by: cddbd v1.4PL0 Copyright (c) Steve Scherf et al.
# Submitted via: CDex 1.40Release
#
DISCID=a80dfe0b
DTITLE=Nature's Harmony - Timeless Blues
DYEAR=1997
DGENRE=Blues
TTITLE0=All I've Got To Say
TTITLE1=Phone Bill Blues
TTITLE2=Miles Out
TTITLE3=I Knew You when
TTITLE4=Pledging My Love
TTITLE5=See Saw
TTITLE6=Sincerely
TTITLE7=Don't Mess Around
TTITLE8=Ko Ko Mo
TTITLE9=Don't Be Out Too Late
TTITLE10=Jezamine
EXTD=YEAR: 1997 ID3G: 0
EXTT0=
EXTT1=
EXTT2=
EXTT3=
EXTT4=
EXTT5=
EXTT6=
EXTT7=
EXTT8=
EXTT9=
EXTT10=
PLAYORDER=
